{
  "accessors": [
    {
      "bufferView": 1,
      "componentType": 5126,
      "count": 17746,
      "max": [
        0.5978271961212158,
        1.9468165636062622,
        0.2650592029094696
      ],
      "min": [
        -1.9950114488601685,
        1.3599836826324463,
        -1.2649418115615845
      ],
      "type": "VEC3"
    },
    {
      "bufferView": 1,
      "byteOffset": 212952,
      "componentType": 5126,
      "count": 17746,
      "max": [
        1.0,
        1.0,
        1.0
      ],
      "min": [
        -1.0,
        -1.0,
        -1.0
      ],
      "type": "VEC3"
    },
    {
      "bufferView": 2,
      "componentType": 5126,
      "count": 17746,
      "max": [
        1.0,
        1.0,
        1.0,
        1.0
      ],
      "min": [
        0.0,
        0.05098039284348488,
        0.0,
        1.0
      ],
      "type": "VEC4"
    },
    {
      "bufferView": 0,
      "componentType": 5125,
      "count": 27708,
      "type": "SCALAR"
    },
    {
      "bufferView": 1,
      "byteOffset": 425904,
      "componentType": 5126,
      "count": 565,
      "max": [
        0.4351142346858978,
        1.9823319911956787,
        -0.36828723549842834
      ],
      "min": [
        -2.01103138923645,
        1.4040459394454956,
        -1.293785810470581
      ],
      "type": "VEC3"
    },
    {
      "bufferView": 1,
      "byteOffset": 432684,
      "componentType": 5126,
      "count": 565,
      "max": [
        0.9909457564353943,
        0.9999073147773743,
        0.9839307069778442
      ],
      "min": [
        -0.9909458160400391,
        -0.999905526638031,
        -0.9837175607681274
      ],
      "type": "VEC3"
    },
    {
      "bufferView": 2,
      "byteOffset": 283936,
      "componentType": 5126,
      "count": 565,
      "max": [
        1.0,
        1.0,
        1.0,
        1.0
      ],
      "min": [
        1.0,
        1.0,
        1.0,
        1.0
      ],
      "type": "VEC4"
    },
    {
      "bufferView": 0,
      "byteOffset": 110832,
      "componentType": 5125,
      "count": 873,
      "type": "SCALAR"
    },
    {
      "bufferView": 1,
      "byteOffset": 439464,
      "componentType": 5126,
      "count": 4056,
      "max": [
        0.5676770210266113,
        2.0141358375549316,
        0.2650592029094696
      ],
      "min": [
        -1.9888709783554077,
        1.2099504470825195,
        -1.2657296657562256
      ],
      "type": "VEC3"
    },
    {
      "bufferView": 1,
      "byteOffset": 488136,
      "componentType": 5126,
      "count": 4056,
      "max": [
        1.0,
        1.0,
        1.0
      ],
      "min": [
        -1.0,
        -1.0,
        -1.0
      ],
      "type": "VEC3"
    },
    {
      "bufferView": 2,
      "byteOffset": 292976,
      "componentType": 5126,
      "count": 4056,
      "max": [
        1.0,
        1.0,
        1.0,
        1.0
      ],
      "min": [
        0.0,
        0.05098039284348488,
        0.0313725508749485,
        1.0
      ],
      "type": "VEC4"
    },
    {
      "bufferView": 0,
      "byteOffset": 114324,
      "componentType": 5125,
      "count": 6210,
      "type": "SCALAR"
    }
  ],
  "asset": {
    "extras": {
      "author": "djcarson (https://sketchfab.com/djcarson)",
      "license": "CC-BY-4.0 (http://creativecommons.org/licenses/by/4.0/)",
      "source": "https://sketchfab.com/3d-models/happy-thanksgiving-da0ee60fe0874e9abed5b51d19ebc8cf",
      "title": "Happy Thanksgiving"
    },
    "generator": "Sketchfab-12.67.0",
    "version": "2.0"
  },
  "bufferViews": [
    {
      "buffer": 0,
      "byteLength": 139164,
      "name": "floatBufferViews",
      "target": 34963
    },
    {
      "buffer": 0,
      "byteLength": 536808,
      "byteOffset": 139164,
      "byteStride": 12,
      "name": "floatBufferViews",
      "target": 34962
    },
    {
      "buffer": 0,
      "byteLength": 357872,
      "byteOffset": 675972,
      "byteStride": 16,
      "name": "floatBufferViews",
      "target": 34962
    }
  ],
  "buffers": [
    {
      "byteLength": 1033844,
      "uri": "scene.bin"
    }
  ],
  "materials": [
    {
      "name": "BlocksPaper",
      "pbrMetallicRoughness": {
        "metallicFactor": 0.0,
        "roughnessFactor": 0.6
      }
    },
    {
      "alphaMode": "BLEND",
      "name": "BlocksGlass",
      "pbrMetallicRoughness": {
        "baseColorFactor": [
          0.2,
          0.2,
          1.0,
          0.3
        ],
        "roughnessFactor": 0.4
      }
    }
  ],
  "meshes": [
    {
      "name": "Object_0",
      "primitives": [
        {
          "attributes": {
            "COLOR_0": 2,
            "NORMAL": 1,
            "POSITION": 0
          },
          "indices": 3,
          "material": 0,
          "mode": 4
        }
      ]
    },
    {
      "name": "Object_1",
      "primitives": [
        {
          "attributes": {
            "COLOR_0": 6,
            "NORMAL": 5,
            "POSITION": 4
          },
          "indices": 7,
          "material": 1,
          "mode": 4
        }
      ]
    },
    {
      "name": "Object_2",
      "primitives": [
        {
          "attributes": {
            "COLOR_0": 10,
            "NORMAL": 9,
            "POSITION": 8
          },
          "indices": 11,
          "material": 0,
          "mode": 4
        }
      ]
    }
  ],
  "nodes": [
    {
      "children": [
        1
      ],
      "matrix": [
        0.9997334480285645,
        -0.017272619530558583,
        -0.015319144353270534,
        0.0,
        -0.015236295759677887,
        0.00491793127730511,
        -0.9998718500137329,
        0.0,
        0.017345745116472244,
        0.9998387098312378,
        0.004653449635952933,
        0.0,
        0.6648879051208496,
        -0.012051670812070515,
        0.6534479856491089,
        1.0
      ],
      "name": "Sketchfab_model"
    },
    {
      "children": [
        2
      ],
      "name": "root"
    },
    {
      "children": [
        3,
        5,
        7
      ],
      "matrix": [
        1.0,
        0.0,
        0.0,
        0.0,
        0.0,
        2.220446049250313e-16,
        1.0,
        0.0,
        0.0,
        -1.0,
        2.220446049250313e-16,
        0.0,
        0.0,
        0.0,
        0.0,
        1.0
      ],
      "name": "GLTF_SceneRootNode"
    },
    {
      "children": [
        4
      ],
      "name": "node_MeshObject718530560-PolyPaper21_2"
    },
    {
      "mesh": 0,
      "name": "Object_4"
    },
    {
      "children": [
        6
      ],
      "name": "node_MeshObject-1006454784-PolyGlass24_0"
    },
    {
      "mesh": 1,
      "name": "Object_6"
    },
    {
      "children": [
        8
      ],
      "name": "node_MeshObject-152710144-PolyPaper8_1"
    },
    {
      "mesh": 2,
      "name": "Object_8"
    }
  ],
  "scene": 0,
  "scenes": [
    {
      "name": "Sketchfab_Scene",
      "nodes": [
        0
      ]
    }
  ]
}
