{
  "accessors": [
    {
      "bufferView": 2,
      "componentType": 5126,
      "count": 65532,
      "max": [
        2.755814790725708,
        2.33815336227417,
        -0.3294629752635956
      ],
      "min": [
        -3.0855205059051514,
        -2.2941322326660156,
        -6.5265045166015625
      ],
      "type": "VEC3"
    },
    {
      "bufferView": 2,
      "byteOffset": 786384,
      "componentType": 5126,
      "count": 65532,
      "max": [
        0.9999513030052185,
        0.9999964833259583,
        0.9995773434638977
      ],
      "min": [
        -0.9999995827674866,
        -0.9999961853027344,
        -0.9999365210533142
      ],
      "type": "VEC3"
    },
    {
      "bufferView": 1,
      "componentType": 5126,
      "count": 65532,
      "max": [
        0.99971604347229,
        0.9991127848625183
      ],
      "min": [
        2.2693619030178525e-05,
        0.0016713662771508098
      ],
      "type": "VEC2"
    },
    {
      "bufferView": 0,
      "componentType": 5125,
      "count": 361029,
      "type": "SCALAR"
    },
    {
      "bufferView": 2,
      "byteOffset": 1572768,
      "componentType": 5126,
      "count": 65532,
      "max": [
        4.079714298248291,
        4.320744037628174,
        7.849055290222168
      ],
      "min": [
        -5.424087047576904,
        -5.3920159339904785,
        -4.108846664428711
      ],
      "type": "VEC3"
    },
    {
      "bufferView": 2,
      "byteOffset": 2359152,
      "componentType": 5126,
      "count": 65532,
      "max": [
        0.9999953508377075,
        0.9999879002571106,
        0.9999454021453857
      ],
      "min": [
        -0.9999993443489075,
        -0.9999799728393555,
        -0.9999909400939941
      ],
      "type": "VEC3"
    },
    {
      "bufferView": 1,
      "byteOffset": 524256,
      "componentType": 5126,
      "count": 65532,
      "max": [
        0.9999226331710815,
        0.9994324445724487
      ],
      "min": [
        3.329856554046273e-05,
        1.7791049685911275e-05
      ],
      "type": "VEC2"
    },
    {
      "bufferView": 0,
      "byteOffset": 1444116,
      "componentType": 5125,
      "count": 353373,
      "type": "SCALAR"
    },
    {
      "bufferView": 2,
      "byteOffset": 3145536,
      "componentType": 5126,
      "count": 63782,
      "max": [
        4.866805553436279,
        4.406238555908203,
        8.01936149597168
      ],
      "min": [
        -5.514388561248779,
        -6.168437957763672,
        -7.348394393920898
      ],
      "type": "VEC3"
    },
    {
      "bufferView": 2,
      "byteOffset": 3910920,
      "componentType": 5126,
      "count": 63782,
      "max": [
        0.9999985694885254,
        0.9999265074729919,
        0.9998912215232849
      ],
      "min": [
        -0.9999969005584717,
        -0.9999809861183167,
        -0.9999719262123108
      ],
      "type": "VEC3"
    },
    {
      "bufferView": 1,
      "byteOffset": 1048512,
      "componentType": 5126,
      "count": 63782,
      "max": [
        0.9998887777328491,
        0.9993975162506104
      ],
      "min": [
        3.888471474056132e-05,
        7.323374302359298e-05
      ],
      "type": "VEC2"
    },
    {
      "bufferView": 0,
      "byteOffset": 2857608,
      "componentType": 5125,
      "count": 314937,
      "type": "SCALAR"
    }
  ],
  "asset": {
    "extras": {
      "author": "symension123 (https://sketchfab.com/symension123)",
      "license": "CC-BY-4.0 (http://creativecommons.org/licenses/by/4.0/)",
      "source": "https://sketchfab.com/3d-models/martin-luther-king-7f75d525dcdc4f76878ee961ca5d9bb1",
      "title": "Martin Luther King"
    },
    "generator": "Sketchfab-12.94.0",
    "version": "2.0"
  },
  "bufferViews": [
    {
      "buffer": 0,
      "byteLength": 4117356,
      "name": "floatBufferViews",
      "target": 34963
    },
    {
      "buffer": 0,
      "byteLength": 1558768,
      "byteOffset": 4117356,
      "byteStride": 8,
      "name": "floatBufferViews",
      "target": 34962
    },
    {
      "buffer": 0,
      "byteLength": 4676304,
      "byteOffset": 5676124,
      "byteStride": 12,
      "name": "floatBufferViews",
      "target": 34962
    }
  ],
  "buffers": [
    {
      "byteLength": 10352428,
      "uri": "scene.bin"
    }
  ],
  "images": [
    {
      "uri": "textures/material0_baseColor.jpeg"
    }
  ],
  "materials": [
    {
      "doubleSided": true,
      "name": "material0",
      "pbrMetallicRoughness": {
        "baseColorFactor": [
          0.5460005836404677,
          0.5460005836404677,
          0.5460005836404677,
          1.0
        ],
        "baseColorTexture": {
          "index": 0
        },
        "roughnessFactor": 0.552786
      }
    }
  ],
  "meshes": [
    {
      "name": "Object_0",
      "primitives": [
        {
          "attributes": {
            "NORMAL": 1,
            "POSITION": 0,
            "TEXCOORD_0": 2
          },
          "indices": 3,
          "material": 0,
          "mode": 4
        }
      ]
    },
    {
      "name": "Object_1",
      "primitives": [
        {
          "attributes": {
            "NORMAL": 5,
            "POSITION": 4,
            "TEXCOORD_0": 6
          },
          "indices": 7,
          "material": 0,
          "mode": 4
        }
      ]
    },
    {
      "name": "Object_2",
      "primitives": [
        {
          "attributes": {
            "NORMAL": 9,
            "POSITION": 8,
            "TEXCOORD_0": 10
          },
          "indices": 11,
          "material": 0,
          "mode": 4
        }
      ]
    }
  ],
  "nodes": [
    {
      "children": [
        1
      ],
      "matrix": [
        1.0,
        0.0,
        0.0,
        0.0,
        0.0,
        2.220446049250313e-16,
        -1.0,
        0.0,
        0.0,
        1.0,
        2.220446049250313e-16,
        0.0,
        0.0,
        0.0,
        0.0,
        1.0
      ],
      "name": "Sketchfab_model"
    },
    {
      "children": [
        2
      ],
      "name": "root"
    },
    {
      "children": [
        3
      ],
      "matrix": [
        1.0,
        0.0,
        0.0,
        0.0,
        0.0,
        2.220446049250313e-16,
        1.0,
        0.0,
        0.0,
        -1.0,
        2.220446049250313e-16,
        0.0,
        0.0,
        0.0,
        0.0,
        1.0
      ],
      "name": "GLTF_SceneRootNode"
    },
    {
      "children": [
        4,
        5,
        6
      ],
      "matrix": [
        0.9839050064532747,
        -7.172329161142521e-09,
        0.17869230055092292,
        0.0,
        -0.17572276506744272,
        0.18154923109037358,
        0.9675543325971656,
        0.0,
        -0.03244145670640816,
        -0.9833818570069788,
        0.17862719612721967,
        0.0,
        0.4177495837211609,
        7.357980728149414,
        0.1502581536769867,
        1.0
      ],
      "name": "Model_1"
    },
    {
      "mesh": 0,
      "name": "Object_4"
    },
    {
      "mesh": 1,
      "name": "Object_5"
    },
    {
      "mesh": 2,
      "name": "Object_6"
    }
  ],
  "samplers": [
    {
      "magFilter": 9729,
      "minFilter": 9987,
      "wrapS": 10497,
      "wrapT": 10497
    }
  ],
  "scene": 0,
  "scenes": [
    {
      "name": "Sketchfab_Scene",
      "nodes": [
        0
      ]
    }
  ],
  "textures": [
    {
      "sampler": 0,
      "source": 0
    }
  ]
}
