{
  "accessors": [
    {
      "bufferView": 2,
      "componentType": 5126,
      "count": 2472,
      "max": [
        1.758960485458374,
        4.658863067626953,
        2.4790782928466797
      ],
      "min": [
        -1.7589612007141113,
        -0.43915700912475586,
        -2.9972472190856934
      ],
      "type": "VEC3"
    },
    {
      "bufferView": 2,
      "byteOffset": 29664,
      "componentType": 5126,
      "count": 2472,
      "max": [
        0.9984508156776428,
        0.9983351826667786,
        0.9988153576850891
      ],
      "min": [
        -0.9984508156776428,
        -0.990066409111023,
        -0.9959582686424255
      ],
      "type": "VEC3"
    },
    {
      "bufferView": 1,
      "componentType": 5126,
      "count": 2472,
      "max": [
        0.9393445253372192,
        0.986216127872467
      ],
      "min": [
        0.02165272831916809,
        0.7699888348579407
      ],
      "type": "VEC2"
    },
    {
      "bufferView": 0,
      "componentType": 5125,
      "count": 8892,
      "type": "SCALAR"
    },
    {
      "bufferView": 2,
      "byteOffset": 59328,
      "componentType": 5126,
      "count": 384,
      "max": [
        3.386483907699585,
        3.491877794265747,
        3.386483907699585
      ],
      "min": [
        -3.386483907699585,
        -3.1702303886413574,
        -3.386483907699585
      ],
      "type": "VEC3"
    },
    {
      "bufferView": 2,
      "byteOffset": 63936,
      "componentType": 5126,
      "count": 384,
      "max": [
        1.0,
        0.9996411800384521,
        1.0
      ],
      "min": [
        -1.0,
        -1.0,
        -1.0
      ],
      "type": "VEC3"
    },
    {
      "bufferView": 0,
      "byteOffset": 35568,
      "componentType": 5125,
      "count": 2196,
      "type": "SCALAR"
    },
    {
      "bufferView": 2,
      "byteOffset": 68544,
      "componentType": 5126,
      "count": 31114,
      "max": [
        10.276779174804688,
        0.18000002205371857,
        2.568098545074463
      ],
      "min": [
        0.2025369554758072,
        -0.18000002205371857,
        -1.9411983489990234
      ],
      "type": "VEC3"
    },
    {
      "bufferView": 2,
      "byteOffset": 441912,
      "componentType": 5126,
      "count": 31114,
      "max": [
        1.0,
        1.0,
        1.0
      ],
      "min": [
        -1.0,
        -1.0,
        -1.0
      ],
      "type": "VEC3"
    },
    {
      "bufferView": 0,
      "byteOffset": 44352,
      "componentType": 5125,
      "count": 93030,
      "type": "SCALAR"
    },
    {
      "bufferView": 2,
      "byteOffset": 815280,
      "componentType": 5126,
      "count": 12350,
      "max": [
        4.390762805938721,
        0.18000002205371857,
        -0.00698054488748312
      ],
      "min": [
        0.2722412347793579,
        -0.18000002205371857,
        -1.2634785175323486
      ],
      "type": "VEC3"
    },
    {
      "bufferView": 2,
      "byteOffset": 963480,
      "componentType": 5126,
      "count": 12350,
      "max": [
        0.9999990463256836,
        1.0,
        0.9999994039535522
      ],
      "min": [
        -0.9999939203262329,
        -1.0,
        -0.9999991655349731
      ],
      "type": "VEC3"
    },
    {
      "bufferView": 0,
      "byteOffset": 416472,
      "componentType": 5125,
      "count": 36408,
      "type": "SCALAR"
    }
  ],
  "asset": {
    "extras": {
      "author": "BetelgeuseMan (https://sketchfab.com/betelgeuseman)",
      "license": "CC-BY-NC-ND-4.0 (http://creativecommons.org/licenses/by-nc-nd/4.0/)",
      "source": "https://sketchfab.com/3d-models/happy-new-year-2020-97f7ec18dd7647b5850c4d82ad89d761",
      "title": "Happy New Year 2020"
    },
    "generator": "Sketchfab-12.66.0",
    "version": "2.0"
  },
  "bufferViews": [
    {
      "buffer": 0,
      "byteLength": 562104,
      "name": "floatBufferViews",
      "target": 34963
    },
    {
      "buffer": 0,
      "byteLength": 19776,
      "byteOffset": 562104,
      "byteStride": 8,
      "name": "floatBufferViews",
      "target": 34962
    },
    {
      "buffer": 0,
      "byteLength": 1111680,
      "byteOffset": 581880,
      "byteStride": 12,
      "name": "floatBufferViews",
      "target": 34962
    }
  ],
  "buffers": [
    {
      "byteLength": 1693560,
      "uri": "scene.bin"
    }
  ],
  "images": [
    {
      "uri": "textures/MAT_Pal_baseColor.png"
    }
  ],
  "materials": [
    {
      "doubleSided": true,
      "name": "MAT_Pal",
      "pbrMetallicRoughness": {
        "baseColorTexture": {
          "index": 0
        },
        "metallicFactor": 0.0,
        "roughnessFactor": 0.0
      }
    },
    {
      "alphaMode": "BLEND",
      "doubleSided": true,
      "name": "MAT_Glass",
      "pbrMetallicRoughness": {
        "baseColorFactor": [
          1.0,
          1.0,
          1.0,
          0.5
        ],
        "roughnessFactor": 0.0
      }
    },
    {
      "alphaMode": "BLEND",
      "doubleSided": true,
      "emissiveFactor": [
        1.0,
        0.5216216044119079,
        0.14524712652193322
      ],
      "name": "MAT_GlassBlue",
      "pbrMetallicRoughness": {
        "baseColorFactor": [
          1.0,
          0.401978,
          0.111932,
          0.270007622
        ],
        "roughnessFactor": 0.324324
      }
    }
  ],
  "meshes": [
    {
      "name": "Object_0",
      "primitives": [
        {
          "attributes": {
            "NORMAL": 1,
            "POSITION": 0,
            "TEXCOORD_0": 2
          },
          "indices": 3,
          "material": 0,
          "mode": 4
        }
      ]
    },
    {
      "name": "Object_1",
      "primitives": [
        {
          "attributes": {
            "NORMAL": 5,
            "POSITION": 4
          },
          "indices": 6,
          "material": 1,
          "mode": 4
        }
      ]
    },
    {
      "name": "Object_2",
      "primitives": [
        {
          "attributes": {
            "NORMAL": 8,
            "POSITION": 7
          },
          "indices": 9,
          "material": 2,
          "mode": 4
        }
      ]
    },
    {
      "name": "Object_3",
      "primitives": [
        {
          "attributes": {
            "NORMAL": 11,
            "POSITION": 10
          },
          "indices": 12,
          "material": 2,
          "mode": 4
        }
      ]
    }
  ],
  "nodes": [
    {
      "children": [
        1
      ],
      "matrix": [
        0.16774456202983856,
        0.0,
        0.0,
        0.0,
        0.0,
        3.724677500423791e-17,
        -0.16774456202983856,
        0.0,
        0.0,
        0.16774456202983856,
        3.724677500423791e-17,
        0.0,
        0.0,
        0.0,
        0.0,
        1.0
      ],
      "name": "Sketchfab_model"
    },
    {
      "children": [
        2
      ],
      "name": "root"
    },
    {
      "children": [
        3,
        6,
        8,
        10
      ],
      "matrix": [
        1.0,
        0.0,
        0.0,
        0.0,
        0.0,
        2.220446049250313e-16,
        1.0,
        0.0,
        0.0,
        -1.0,
        2.220446049250313e-16,
        0.0,
        0.0,
        0.0,
        0.0,
        1.0
      ],
      "name": "GLTF_SceneRootNode"
    },
    {
      "children": [
        4
      ],
      "name": "Armature_26"
    },
    {
      "children": [
        5
      ],
      "name": "Cube.000_0"
    },
    {
      "mesh": 0,
      "name": "Object_5"
    },
    {
      "children": [
        7
      ],
      "name": "Plane.002_29"
    },
    {
      "mesh": 1,
      "name": "Object_7"
    },
    {
      "children": [
        9
      ],
      "matrix": [
        0.7071067722463509,
        3.22578018185915e-08,
        -0.7071067901267434,
        0.0,
        0.7071067901267434,
        -7.787722111629591e-08,
        0.7071067722463473,
        0.0,
        -3.22578018185915e-08,
        -0.9999999999999964,
        -7.787722111629591e-08,
        0.0,
        -1.807956337928772,
        8.193337440490723,
        2.1111948490142822,
        1.0
      ],
      "name": "Text_32"
    },
    {
      "mesh": 2,
      "name": "Object_9"
    },
    {
      "children": [
        11
      ],
      "matrix": [
        1.0,
        0.0,
        0.0,
        0.0,
        0.0,
        0.0,
        1.0,
        0.0,
        0.0,
        -1.0,
        0.0,
        0.0,
        2.611967086791992,
        -2.9528446197509766,
        -2.152027130126953,
        1.0
      ],
      "name": "Text.001_33"
    },
    {
      "mesh": 3,
      "name": "Object_11"
    }
  ],
  "samplers": [
    {
      "magFilter": 9728,
      "minFilter": 9728,
      "wrapS": 10497,
      "wrapT": 10497
    }
  ],
  "scene": 0,
  "scenes": [
    {
      "name": "Sketchfab_Scene",
      "nodes": [
        0
      ]
    }
  ],
  "textures": [
    {
      "sampler": 0,
      "source": 0
    }
  ]
}
